<svg width="64" height="121" viewBox="0 0 64 121" fill="none" xmlns="http://www.w3.org/2000/svg">
<path d="M19.9762 18.2595C19.8277 17.5081 20.5556 16.8801 21.2872 17.1285L37.387 22.5949C38.1193 22.8436 38.306 23.7837 37.7229 24.2867L24.8911 35.3568C24.3081 35.8598 23.3928 35.5482 23.2442 34.796L19.9762 18.2595Z" fill="#FFF200"/>
<path d="M5.26558 78.6356C4.50891 78.4686 4.21645 77.5464 4.74089 76.9812L16.2546 64.5718C16.7758 64.0101 17.7142 64.2224 17.9464 64.9547L23.045 81.0308C23.2772 81.7631 22.6299 82.4683 21.8779 82.3023L5.26558 78.6356Z" fill="#FFF200"/>
<path d="M48.2807 117.24C47.7613 117.805 46.8263 117.604 46.5914 116.876L41.4132 100.825C41.1768 100.092 41.8266 99.3758 42.5809 99.5385L59.2112 103.124C59.9654 103.287 60.2557 104.206 59.7327 104.775L48.2807 117.24Z" fill="#FFF200"/>
<path d="M21.0105 103.76C20.2736 103.992 19.5592 103.349 19.7242 102.601L23.3529 86.138C23.5179 85.3894 24.4396 85.0977 25.0116 85.6132L37.5983 96.9556C38.1703 97.4711 37.9635 98.4068 37.226 98.6397L21.0105 103.76Z" fill="#FFF200"/>
<path d="M47.2462 3.88817C47.4954 3.16497 48.4341 2.9816 48.9421 3.55687L60.1447 16.2423C60.6563 16.8216 60.3479 17.7345 59.5906 17.8824L42.8924 21.1443C42.1351 21.2922 41.4995 20.5637 41.7505 19.8355L47.2462 3.88817Z" fill="#FFF200"/>
<path d="M4.51906 46.9841C3.98268 46.4299 4.25552 45.5016 5.00851 45.3188L21.5391 41.3063C22.2873 41.1247 22.9493 41.8163 22.7327 42.5533L17.9774 58.7321C17.7608 59.4691 16.8274 59.7011 16.2944 59.1505L4.51906 46.9841Z" fill="#FFF200"/>
<path fill-rule="evenodd" clip-rule="evenodd" d="M60.2595 23.8271C40.0535 23.8271 23.6733 40.0434 23.6733 60.0472C23.6733 80.051 40.0535 96.2672 60.2595 96.2672V23.8271Z" fill="#FFF200"/>
</svg>
